<svg data-v-0dd9719b="" version="1.0" xmlns="http://www.w3.org/2000/svg" xmlns:xlink="http://www.w3.org/1999/xlink" width="100%" height="100%" viewBox="0 0 340.000000 250.000000" preserveAspectRatio="xMidYMid meet" color-interpolation-filters="sRGB" style="margin: auto;"> <rect data-v-0dd9719b="" x="0" y="0" width="100%" height="100%" fill="#fff" fill-opacity="1" class="background"></rect> <rect data-v-0dd9719b="" x="0" y="0" width="100%" height="100%" fill="url(#watermark)" fill-opacity="1" class="watermarklayer"></rect> <g data-v-0dd9719b="" fill="#3699ea" class="icon-text-wrapper icon-svg-group iconsvg" transform="translate(47.469993591308594,96.67753791814367)"><g class="iconsvg-imagesvg" transform="translate(0,0)"><g><rect fill="#3699ea" fill-opacity="0" stroke-width="2" x="0" y="0" width="60" height="56.644921310763486" class="image-rect"></rect> <svg x="0" y="0" width="60" height="56.644921310763486" filtersec="colorsb3284928089" class="image-svg-svg primary" style="overflow: visible;"><svg xmlns="http://www.w3.org/2000/svg" viewBox="-0.003525275969877839 -0.0038033658638596535 264.3553466796875 249.5738983154297"><g><g fill="#3699ea"><path d="M88.26 14.26a19 19 0 0 0 18.69 5.47l65.67-17a1.38 1.38 0 0 0-.37-2.73L87.36 1a5 5 0 0 0-3.63 8.44zM204.69 14.78a10.81 10.81 0 0 0-14-7l-65.62 23.58a5.34 5.34 0 0 0-.92 9.62l98.48 58.41a4.39 4.39 0 0 0 6.43-5.06zM103 177.28a6.6 6.6 0 0 0 9.88 5.69l99.32-57.07.09-.05a6.62 6.62 0 0 0 .08-11.44L112.1 54.94a6.42 6.42 0 0 0-9.7 5.55zM263.73 136.83a5.62 5.62 0 0 0-5.94-8.11 18.67 18.67 0 0 0-14.57 12.6l-27.67 85.05a.92.92 0 0 0 1.69.7zM258.31 113.62a4.34 4.34 0 0 0 4.7-6.3L217.6 22.4a.76.76 0 0 0-1.39.63L246 103.09a16.74 16.74 0 0 0 12.31 10.53zM75.55 180.29a5.87 5.87 0 0 0 9.24-4.84l-.53-112.18A5.5 5.5 0 0 0 75.34 59L3.2 116.43A8.46 8.46 0 0 0 3.62 130zM2.32 99.68a1.64 1.64 0 0 0 2.53 2l66.77-62a11.35 11.35 0 0 0 .6-16l-7.49-8.08A8.45 8.45 0 0 0 51.25 17zM107.85 219.33a15.23 15.23 0 0 0-17.45 5.08l-10.09 13.38a5.83 5.83 0 0 0 4.51 9.35l93.49 2.43a1.9 1.9 0 0 0 .71-3.67zM226.49 147.65a4.73 4.73 0 0 0-6.94-5.3l-95.85 55.31a5.83 5.83 0 0 0 .5 10.36l66.92 30.4a9.55 9.55 0 0 0 13.2-6.28zM74.21 215.48a11.75 11.75 0 0 0-2.06-16.19L6 146.19a2.07 2.07 0 0 0-3.08 2.67l47.64 80.84a7.54 7.54 0 0 0 12.54.68z"></path></g></g></svg></svg> <!----></g></g> <g transform="translate(67,3.8512134552001953)"><g data-gra="path-name" fill-rule="" class="tp-name iconsvg-namesvg" transform="translate(0,0)"><g transform="scale(1)"><g><path d="M21.02-24.59L34.34-24.59 34.34-23.54Q34.34-23.54 8.96-23.54L8.96-23.54 8.96-15.37Q8.96-13.57 8.89-12.2 8.82-10.84 8.57-8.96L8.57-8.96Q8.35-7.13 7.81-5.58L7.81-5.58Q7.27-4.07 6.44-2.45L6.44-2.45Q5.65-0.83 4.32 0.61 2.99 2.05 1.22 3.24L1.22 3.24 0.9 2.95Q3.1-0.61 3.74-5L3.74-5Q4.43-9.43 4.43-15.34L4.43-15.34 4.43-26.39 9.68-24.59 19.15-24.59Q18.86-24.7 18.47-24.95L18.47-24.95Q17.89-27.76 15.44-30.42L15.44-30.42 15.73-30.64Q20.77-30.2 22-27.79L22-27.79Q22.75-26.32 21.78-25.16L21.78-25.16Q21.46-24.8 21.02-24.59L21.02-24.59ZM43.38-15.62L43.38-30.06 47.41-29.52Q47.41-29.52 47.41-15.59L47.41-15.59Q47.38-12.46 46.91-9.83L46.91-9.83Q46.44-7.24 45.32-4.72L45.32-4.72Q44.24-2.2 42.19-0.14L42.19-0.14Q40.18 1.91 37.26 3.35L37.26 3.35 36.97 2.99Q40.61-0.36 41.98-4.93L41.98-4.93Q43.38-9.5 43.38-15.62L43.38-15.62ZM64.44 3.28L64.44-30.06 68.62-29.48 68.62 1.84Q68.62 2.23 67.46 2.74L67.46 2.74Q66.35 3.28 65.23 3.28L65.23 3.28 64.44 3.28ZM53.71 2.63L53.71-29.45 57.78-28.91 57.78 1.26Q57.78 1.62 56.66 2.12L56.66 2.12Q55.58 2.63 54.5 2.63L54.5 2.63 53.71 2.63ZM47.81-20.05L48.24-20.2Q52.34-17.57 52.85-14.33L52.85-14.33Q53.14-12.31 52.02-11.41L52.02-11.41Q50.87-10.48 49.61-11.7L49.61-11.7Q49.54-11.77 49.46-11.84L49.46-11.84Q49.68-15.34 47.81-20.05L47.81-20.05ZM58.21-20.09L58.64-20.27Q62.89-17.82 63.54-14.65L63.54-14.65Q63.94-12.6 62.78-11.59L62.78-11.59Q61.7-10.62 60.44-11.7L60.44-11.7Q60.26-11.84 60.12-11.99L60.12-11.99Q60.3-15.66 58.21-20.09L58.21-20.09ZM37.48-20.7L37.91-20.84Q42.23-17.96 42.8-14.36L42.8-14.36Q43.2-12.13 42.01-11.02L42.01-11.02Q40.86-10.01 39.53-11.2L39.53-11.2Q39.38-11.3 39.24-11.45L39.24-11.45Q39.49-15.62 37.48-20.7L37.48-20.7ZM97.27-23.11L97.27-27.11 83.34-27.11 83.34-23.11 97.27-23.11ZM83.34-22.1L83.34-17.96 97.27-17.96 97.27-22.1 83.34-22.1ZM92.81 0.9L106.81 0.9 106.81 1.91Q106.81 1.91 73.66 1.91L73.66 1.91 73.37 0.9 88.31 0.9 88.31-4.43 78.84-4.43 78.55-5.4 88.31-5.4 88.31-9.94 82.3-9.94Q79.09-6.12 74.81-4.14L74.81-4.14 74.41-4.46Q78.37-8.6 80.53-15.01L80.53-15.01Q79.88-14.94 79.52-14.94L79.52-14.94 78.88-14.94 78.88-29.99 83.59-28.15 101.77-28.15 101.77-16.45Q101.74-16.2 100.4-15.8 99.07-15.41 98.06-15.41L98.06-15.41 97.27-15.41 97.27-16.92 83.34-16.92 83.34-16.31Q83.34-16.06 82.44-15.62L82.44-15.62 86.15-14.11Q85.86-13.39 84.74-13.54L84.74-13.54Q84.06-12.31 83.09-10.98L83.09-10.98 88.31-10.98 88.31-16.06 92.81-15.55 92.81-10.98 104.44-10.98 104.44-9.94 92.81-9.94 92.81-5.4 104.15-5.4 104.15-4.43 92.81-4.43 92.81 0.9ZM139.32-26.6L139.32-25.56 113.62-25.56 113.33-26.6 139.32-26.6ZM109.44-0.4L109.44-0.4 109.12-0.76Q111.56-3.28 113.58-6.98 115.6-10.69 116.57-13.97L116.57-13.97 120.6-11.48Q118.69-7.92 115.81-5.04L115.81-5.04Q112.93-2.2 109.44-0.4ZM130.68-12.96L130.68-12.96 131.04-13.21Q138.28-10.84 140.72-6.66L140.72-6.66Q142.2-4.14 141.3-2.3L141.3-2.3Q140.62-0.86 139.07-1.19L139.07-1.19Q138.42-1.3 137.74-1.76L137.74-1.76Q137.02-4.43 135-7.49 132.98-10.55 130.68-12.96ZM109.19-18.18L142.81-18.18 142.81-17.14 128.02-17.14 128.02 2.12Q127.98 2.27 127.58 2.48L127.58 2.48Q127.19 2.74 126.29 2.95L126.29 2.95Q125.42 3.2 124.38 3.2L124.38 3.2 123.59 3.2 123.59-17.14 109.51-17.14 109.19-18.18ZM159.88-21.49L154.01-21.49 154.01-16.42 159.88-16.42 159.88-21.49ZM159.88-22.5L159.88-27.32 154.01-27.32 154.01-22.5 159.88-22.5ZM170.17-22.5L170.17-27.32 163.98-27.32 163.98-22.5 170.17-22.5ZM163.98-21.49L163.98-16.42 170.17-16.42 170.17-21.49 163.98-21.49ZM170.17-13.86L170.17-15.37 165.74-15.37Q169.63-11.59 178.96-10.48L178.96-10.48 178.92-10.04Q176.51-9.4 175.9-6.19L175.9-6.19Q171.9-7.67 169.2-9.86L169.2-9.86 169.2 2.09Q169.2 2.34 168.01 2.77L168.01 2.77Q166.86 3.2 165.89 3.2L165.89 3.2 165.06 3.2 165.06-11.56 167.58-11.3Q165.85-13.18 164.81-15.37L164.81-15.37 161.64-15.37Q159.98-13.03 157.43-11.23L157.43-11.23 160.2-10.94Q160.13-10.19 159.05-10.04L159.05-10.04 159.05-7.06Q159.01-5.69 158.72-4.57 158.44-3.46 157.61-2.2L157.61-2.2Q156.78-0.97 155.41 0L155.41 0Q154.08 0.97 151.78 1.84L151.78 1.84Q149.51 2.7 146.41 3.28L146.41 3.28 146.2 2.88Q148.86 1.94 150.66 0.76L150.66 0.76Q152.46-0.4 153.32-1.73L153.32-1.73Q154.22-3.1 154.55-4.36L154.55-4.36Q154.91-5.62 154.91-7.13L154.91-7.13 154.91-9.68Q151.02-7.6 145.33-6.37L145.33-6.37 145.08-6.88Q152.75-9.83 156.42-15.37L156.42-15.37 154.01-15.37 154.01-14.8Q154.01-14.44 152.82-13.93L152.82-13.93Q151.67-13.46 150.44-13.46L150.44-13.46 149.83-13.46 149.83-30.13 154.3-28.37 174.42-28.37 174.42-14.9Q174.38-14.65 173.12-14.26 171.86-13.86 170.89-13.86L170.89-13.86 170.17-13.86Z" transform="translate(-0.9000000357627869, 30.639999389648438)"></path></g> <!----> <!----> <!----> <!----> <!----> <!----> <!----></g></g> <g data-gra="path-slogan" fill-rule="" class="tp-slogan iconsvg-slogansvg" fill="#3699ea" transform="translate(15.854446411132812,39.98999786376953)"><!----> <!----> <g transform="scale(1, 1)"><g transform="scale(1)"><path d="M7.31-3.61L4.69-3.61L4.69-4.59L8.44-4.59L8.44 0L7.69 0L7.41-1.08Q6.42 0.09 4.59 0.14L4.59 0.14Q2.86 0.14 1.92-0.75L1.92-0.75Q0.52-2.06 0.56-4.36L0.56-4.36Q0.89-8.63 4.64-8.81L4.64-8.81Q7.83-8.63 8.30-6L8.30-6L7.17-6Q6.70-7.78 4.59-7.83L4.59-7.83Q1.92-7.64 1.78-4.31L1.78-4.31Q1.78-0.75 4.64-0.75L4.64-0.75Q5.67-0.75 6.42-1.31L6.42-1.31Q7.36-2.06 7.31-3.61L7.31-3.61ZM15.89-3.19L15.89-8.58L17.06-8.58L17.06-3.05Q16.92 0.05 13.55 0.14L13.55 0.14Q10.41 0.05 10.27-2.86L10.27-2.86L10.27-8.58L11.44-8.58L11.44-3.19Q11.48-0.84 13.59-0.80L13.59-0.80Q15.89-0.84 15.89-3.19L15.89-3.19ZM24.52 0L23.67-2.48L20.20-2.48L19.31 0L18.14 0L21.38-8.58L22.69-8.58L25.78 0L24.52 0ZM21.94-7.31L20.58-3.52L23.25-3.52L21.98-7.31L21.94-7.31ZM28.22-8.58L32.53-1.64L32.53-8.58L33.66-8.58L33.66 0L32.34 0L27.98-6.94L27.94-6.94L27.94 0L26.81 0L26.81-8.58L28.22-8.58ZM41.86-3.61L39.23-3.61L39.23-4.59L42.98-4.59L42.98 0L42.23 0L41.95-1.08Q40.97 0.09 39.14 0.14L39.14 0.14Q37.41 0.14 36.47-0.75L36.47-0.75Q35.06-2.06 35.11-4.36L35.11-4.36Q35.44-8.63 39.19-8.81L39.19-8.81Q42.38-8.63 42.84-6L42.84-6L41.72-6Q41.25-7.78 39.14-7.83L39.14-7.83Q36.47-7.64 36.33-4.31L36.33-4.31Q36.33-0.75 39.19-0.75L39.19-0.75Q40.22-0.75 40.97-1.31L40.97-1.31Q41.91-2.06 41.86-3.61L41.86-3.61ZM45.61-1.03L50.91-1.03L50.91 0L44.16 0L44.16-0.94L49.41-7.59L44.53-7.59L44.53-8.58L50.91-8.58L50.91-7.59L45.61-1.03ZM53.20-5.06L57.70-5.06L57.70-8.58L58.88-8.58L58.88 0L57.70 0L57.70-3.98L53.20-3.98L53.20 0L52.03 0L52.03-8.58L53.20-8.58L53.20-5.06ZM67.45-4.27L67.45-4.27Q67.27-7.64 64.45-7.83L64.45-7.83Q61.59-7.69 61.45-4.27L61.45-4.27Q61.59-0.94 64.45-0.80L64.45-0.80Q67.27-0.98 67.45-4.27ZM68.63-4.27L68.63-4.27Q68.34 0 64.45 0.14L64.45 0.14Q60.52 0 60.23-4.27L60.23-4.27Q60.47-8.72 64.45-8.81L64.45-8.81Q68.34-8.67 68.63-4.27ZM75.66-3.19L75.66-8.58L76.83-8.58L76.83-3.05Q76.69 0.05 73.31 0.14L73.31 0.14Q70.17 0.05 70.03-2.86L70.03-2.86L70.03-8.58L71.20-8.58L71.20-3.19Q71.25-0.84 73.36-0.80L73.36-0.80Q75.66-0.84 75.66-3.19L75.66-3.19ZM88.69-8.58L85.78-4.41L88.83 0L87.38 0L85.03-3.52L82.69 0L81.28 0L84.38-4.41L81.47-8.58L82.92-8.58L85.08-5.30L87.28-8.58L88.69-8.58ZM90.09-8.58L91.27-8.58L91.27 0L90.09 0L90.09-8.58ZM94.64-8.58L98.95-1.64L98.95-8.58L100.08-8.58L100.08 0L98.77 0L94.41-6.94L94.36-6.94L94.36 0L93.23 0L93.23-8.58L94.64-8.58ZM108.28-3.61L105.66-3.61L105.66-4.59L109.41-4.59L109.41 0L108.66 0L108.38-1.08Q107.39 0.09 105.56 0.14L105.56 0.14Q103.83 0.14 102.89-0.75L102.89-0.75Q101.48-2.06 101.53-4.36L101.53-4.36Q101.86-8.63 105.61-8.81L105.61-8.81Q108.80-8.63 109.27-6L109.27-6L108.14-6Q107.67-7.78 105.56-7.83L105.56-7.83Q102.89-7.64 102.75-4.31L102.75-4.31Q102.75-0.75 105.61-0.75L105.61-0.75Q106.64-0.75 107.39-1.31L107.39-1.31Q108.33-2.06 108.28-3.61L108.28-3.61ZM117.47-6.09L117.47-6.09L116.39-6.09Q116.30-7.73 114.23-7.83L114.23-7.83Q112.31-7.78 112.31-6.33L112.31-6.33Q112.31-5.39 113.34-5.25L113.34-5.25L115.78-4.69Q117.70-4.22 117.70-2.34L117.70-2.34Q117.66 0.05 114.33 0.14L114.33 0.14Q112.50 0.14 111.75-0.61L111.75-0.61Q110.81-1.31 110.86-2.77L110.86-2.77L111.98-2.77Q112.03-0.80 114.33-0.75L114.33-0.75Q116.58-0.80 116.63-2.20L116.63-2.20Q116.81-3.38 114.75-3.75L114.75-3.75L112.97-4.13Q111.14-4.64 111.14-6.19L111.14-6.19Q111.28-8.72 114.14-8.81L114.14-8.81Q117.38-8.81 117.47-6.09ZM120.33-5.06L124.83-5.06L124.83-8.58L126-8.58L126 0L124.83 0L124.83-3.98L120.33-3.98L120.33 0L119.16 0L119.16-8.58L120.33-8.58L120.33-5.06ZM127.97-8.58L129.14-8.58L129.14 0L127.97 0L127.97-8.58ZM130.41-1.92L130.41-2.77L131.48-2.77L131.48-2.16Q131.48-0.75 132.80-0.75L132.80-0.75Q134.16-0.75 134.16-2.25L134.16-2.25L134.16-8.58L135.33-8.58L135.33-2.30Q135.28 0.09 132.84 0.14L132.84 0.14Q130.55 0.09 130.41-1.92L130.41-1.92ZM137.30-8.58L138.47-8.58L138.47 0L137.30 0L137.30-8.58ZM141.75-1.03L146.91-1.03L146.91 0L140.58 0L140.58-8.58L146.81-8.58L146.81-7.59L141.75-7.59L141.75-4.92L146.44-4.92L146.44-3.89L141.75-3.89L141.75-1.03Z" transform="translate(-0.5609879032258065, 8.8125)"></path></g></g></g></g></g><defs v-gra="od"></defs></svg>